<?xml version="1.0" encoding="UTF-8"?>
<svg width="120" height="120" viewBox="0 0 120 120" xmlns="http://www.w3.org/2000/svg">
  <defs>
    <linearGradient id="lotusGradient" x1="0%" y1="0%" x2="100%" y2="100%">
      <stop offset="0%" style="stop-color:#6B73FF;stop-opacity:1" />
      <stop offset="50%" style="stop-color:#9B59B6;stop-opacity:1" />
      <stop offset="100%" style="stop-color:#E74C3C;stop-opacity:1" />
    </linearGradient>
    <linearGradient id="backgroundGradient" x1="0%" y1="0%" x2="100%" y2="100%">
      <stop offset="0%" style="stop-color:#8A7CFF;stop-opacity:1" />
      <stop offset="50%" style="stop-color:#B86BC6;stop-opacity:1" />
      <stop offset="100%" style="stop-color:#F06C5C;stop-opacity:1" />
    </linearGradient>
    <filter id="glow">
      <feGaussianBlur stdDeviation="2" result="coloredBlur"/>
      <feMerge> 
        <feMergeNode in="coloredBlur"/>
        <feMergeNode in="SourceGraphic"/>
      </feMerge>
    </filter>
  </defs>
  
  <!-- 实心背景 - 不使用透明度 -->
  <circle cx="60" cy="60" r="50" fill="url(#backgroundGradient)"/>
  
  <!-- 莲花花瓣 - 使用实心颜色 -->
  <g transform="translate(60,60)" filter="url(#glow)">
    <!-- 外层花瓣 -->
    <path d="M0,-20 C-6,-28 -12,-24 -10,-16 C-6,-8 0,-12 0,-20Z" fill="#FFFFFF"/>
    <path d="M0,-20 C6,-28 12,-24 10,-16 C6,-8 0,-12 0,-20Z" fill="#FFFFFF"/>
    
    <g transform="rotate(45)">
      <path d="M0,-20 C-6,-28 -12,-24 -10,-16 C-6,-8 0,-12 0,-20Z" fill="#F0F0FF"/>
      <path d="M0,-20 C6,-28 12,-24 10,-16 C6,-8 0,-12 0,-20Z" fill="#F0F0FF"/>
    </g>
    
    <g transform="rotate(90)">
      <path d="M0,-20 C-6,-28 -12,-24 -10,-16 C-6,-8 0,-12 0,-20Z" fill="#E8E8FF"/>
      <path d="M0,-20 C6,-28 12,-24 10,-16 C6,-8 0,-12 0,-20Z" fill="#E8E8FF"/>
    </g>
    
    <g transform="rotate(135)">
      <path d="M0,-20 C-6,-28 -12,-24 -10,-16 C-6,-8 0,-12 0,-20Z" fill="#E0E0FF"/>
      <path d="M0,-20 C6,-28 12,-24 10,-16 C6,-8 0,-12 0,-20Z" fill="#E0E0FF"/>
    </g>
    
    <g transform="rotate(180)">
      <path d="M0,-20 C-6,-28 -12,-24 -10,-16 C-6,-8 0,-12 0,-20Z" fill="#D8D8FF"/>
      <path d="M0,-20 C6,-28 12,-24 10,-16 C6,-8 0,-12 0,-20Z" fill="#D8D8FF"/>
    </g>
    
    <g transform="rotate(225)">
      <path d="M0,-20 C-6,-28 -12,-24 -10,-16 C-6,-8 0,-12 0,-20Z" fill="#D0D0FF"/>
      <path d="M0,-20 C6,-28 12,-24 10,-16 C6,-8 0,-12 0,-20Z" fill="#D0D0FF"/>
    </g>
    
    <g transform="rotate(270)">
      <path d="M0,-20 C-6,-28 -12,-24 -10,-16 C-6,-8 0,-12 0,-20Z" fill="#D8D8FF"/>
      <path d="M0,-20 C6,-28 12,-24 10,-16 C6,-8 0,-12 0,-20Z" fill="#D8D8FF"/>
    </g>
    
    <g transform="rotate(315)">
      <path d="M0,-20 C-6,-28 -12,-24 -10,-16 C-6,-8 0,-12 0,-20Z" fill="#E0E0FF"/>
      <path d="M0,-20 C6,-28 12,-24 10,-16 C6,-8 0,-12 0,-20Z" fill="#E0E0FF"/>
    </g>
    
    <!-- 内层花瓣 -->
    <g transform="rotate(22.5)">
      <path d="M0,-14 C-5,-20 -8,-18 -6,-12 C-5,-6 0,-10 0,-14Z" fill="#FFFFFF"/>
      <path d="M0,-14 C5,-20 8,-18 6,-12 C5,-6 0,-10 0,-14Z" fill="#FFFFFF"/>
    </g>
    
    <g transform="rotate(67.5)">
      <path d="M0,-14 C-5,-20 -8,-18 -6,-12 C-5,-6 0,-10 0,-14Z" fill="#F8F8FF"/>
      <path d="M0,-14 C5,-20 8,-18 6,-12 C5,-6 0,-10 0,-14Z" fill="#F8F8FF"/>
    </g>
    
    <g transform="rotate(112.5)">
      <path d="M0,-14 C-5,-20 -8,-18 -6,-12 C-5,-6 0,-10 0,-14Z" fill="#F0F0FF"/>
      <path d="M0,-14 C5,-20 8,-18 6,-12 C5,-6 0,-10 0,-14Z" fill="#F0F0FF"/>
    </g>
    
    <g transform="rotate(157.5)">
      <path d="M0,-14 C-5,-20 -8,-18 -6,-12 C-5,-6 0,-10 0,-14Z" fill="#E8E8FF"/>
      <path d="M0,-14 C5,-20 8,-18 6,-12 C5,-6 0,-10 0,-14Z" fill="#E8E8FF"/>
    </g>
    
    <g transform="rotate(202.5)">
      <path d="M0,-14 C-5,-20 -8,-18 -6,-12 C-5,-6 0,-10 0,-14Z" fill="#E0E0FF"/>
      <path d="M0,-14 C5,-20 8,-18 6,-12 C5,-6 0,-10 0,-14Z" fill="#E0E0FF"/>
    </g>
    
    <g transform="rotate(247.5)">
      <path d="M0,-14 C-5,-20 -8,-18 -6,-12 C-5,-6 0,-10 0,-14Z" fill="#E8E8FF"/>
      <path d="M0,-14 C5,-20 8,-18 6,-12 C5,-6 0,-10 0,-14Z" fill="#E8E8FF"/>
    </g>
    
    <g transform="rotate(292.5)">
      <path d="M0,-14 C-5,-20 -8,-18 -6,-12 C-5,-6 0,-10 0,-14Z" fill="#F0F0FF"/>
      <path d="M0,-14 C5,-20 8,-18 6,-12 C5,-6 0,-10 0,-14Z" fill="#F0F0FF"/>
    </g>
    
    <g transform="rotate(337.5)">
      <path d="M0,-14 C-5,-20 -8,-18 -6,-12 C-5,-6 0,-10 0,-14Z" fill="#F8F8FF"/>
      <path d="M0,-14 C5,-20 8,-18 6,-12 C5,-6 0,-10 0,-14Z" fill="#F8F8FF"/>
    </g>
    
    <!-- 中心圆 -->
    <circle cx="0" cy="0" r="6" fill="url(#lotusGradient)"/>
    <circle cx="0" cy="0" r="3" fill="#FFFFFF"/>
  </g>
</svg>
