<?xml version="1.0" encoding="UTF-8"?>
<svg width="1024" height="500" viewBox="0 0 1024 500" xmlns="http://www.w3.org/2000/svg">
  <defs>
    <!-- 简洁背景渐变 -->
    <linearGradient id="simpleBackground" x1="0%" y1="0%" x2="100%" y2="0%">
      <stop offset="0%" style="stop-color:#6B73FF;stop-opacity:1" />
      <stop offset="50%" style="stop-color:#9B59B6;stop-opacity:1" />
      <stop offset="100%" style="stop-color:#E74C3C;stop-opacity:1" />
    </linearGradient>
    
    <!-- 文字阴影 -->
    <filter id="textShadow">
      <feDropShadow dx="1" dy="1" stdDeviation="2" flood-color="#000000" flood-opacity="0.3"/>
    </filter>
    
    <!-- 图标发光 -->
    <filter id="iconGlow">
      <feGaussianBlur stdDeviation="3" result="coloredBlur"/>
      <feMerge> 
        <feMergeNode in="coloredBlur"/>
        <feMergeNode in="SourceGraphic"/>
      </feMerge>
    </filter>
  </defs>
  
  <!-- 主背景 -->
  <rect width="1024" height="500" fill="url(#simpleBackground)"/>
  
  <!-- 半透明覆盖层 -->
  <rect width="1024" height="500" fill="#000000" opacity="0.2"/>
  
  <!-- 主要内容 -->
  <g transform="translate(100, 125)">
    
    <!-- 应用图标 -->
    <g transform="translate(100, 125)" filter="url(#iconGlow)">
      <!-- 图标背景 -->
      <circle cx="0" cy="0" r="60" fill="#FFFFFF"/>
      
      <!-- 简化的莲花图标 -->
      <g>
        <!-- 花瓣 -->
        <path d="M0,-25 C-8,-35 -15,-30 -12,-20 C-8,-10 0,-15 0,-25Z" fill="#6B73FF"/>
        <path d="M0,-25 C8,-35 15,-30 12,-20 C8,-10 0,-15 0,-25Z" fill="#6B73FF"/>
        
        <g transform="rotate(60)">
          <path d="M0,-25 C-8,-35 -15,-30 -12,-20 C-8,-10 0,-15 0,-25Z" fill="#9B59B6"/>
          <path d="M0,-25 C8,-35 15,-30 12,-20 C8,-10 0,-15 0,-25Z" fill="#9B59B6"/>
        </g>
        
        <g transform="rotate(120)">
          <path d="M0,-25 C-8,-35 -15,-30 -12,-20 C-8,-10 0,-15 0,-25Z" fill="#E74C3C"/>
          <path d="M0,-25 C8,-35 15,-30 12,-20 C8,-10 0,-15 0,-25Z" fill="#E74C3C"/>
        </g>
        
        <!-- 中心 -->
        <circle cx="0" cy="0" r="8" fill="#FFFFFF"/>
      </g>
    </g>
    
    <!-- 应用名称 -->
    <text x="220" y="100" font-family="Arial, sans-serif" font-size="80" font-weight="bold" 
          fill="#FFFFFF" filter="url(#textShadow)">Mindra</text>
    
    <!-- 副标题 -->
    <text x="220" y="140" font-family="Arial, sans-serif" font-size="32" font-weight="300" 
          fill="#FFFFFF" filter="url(#textShadow)" opacity="0.9">冥想 · 正念 · 专注</text>
    
    <!-- 描述文字 -->
    <text x="220" y="180" font-family="Arial, sans-serif" font-size="24" font-weight="300" 
          fill="#FFFFFF" opacity="0.8">找到内心的平静与专注</text>
    
  </g>
  
  <!-- 右下角装饰 -->
  <g transform="translate(900, 450)" opacity="0.3">
    <circle cx="0" cy="0" r="30" fill="none" stroke="#FFFFFF" stroke-width="2"/>
    <circle cx="0" cy="0" r="20" fill="none" stroke="#FFFFFF" stroke-width="1"/>
    <circle cx="0" cy="0" r="10" fill="none" stroke="#FFFFFF" stroke-width="1"/>
  </g>
  
</svg>
